# xmcd
#
# Track frame offsets:
#	150
#	13473
#	28323
#	46622
#	59462
#	73915
#	86011
#	100499
#	119355
#	131036
#	146571
#
# Disc length: 2116 seconds
#
# Revision: 0
# Processed by: cddbd v1.5.2PL0 Copyright (c) Steve Scherf et al.
# Submitted via: EZCDAudioConverter 1.0.3.1
#
DISCID=a708420b
DTITLE=Country Banda - Še en gl'ž ga dej
DYEAR=2007
DGENRE=Country
TTITLE0=Špeg'u
TTITLE1=Še en gl'ž ga dej
TTITLE2=Zvezdica
TTITLE3=Ni treba dost
TTITLE4=Mavrica
TTITLE5=Jest sm iz vasi
TTITLE6=Sedem palčkov
TTITLE7=Moj mali dom
TTITLE8=Adijo moja drag'a
TTITLE9=Kar imam
TTITLE10=Cowboy reei
EXTD=
EXTT0=
EXTT1=
EXTT2=
EXTT3=
EXTT4=
EXTT5=
EXTT6=
EXTT7=
EXTT8=
EXTT9=
EXTT10=
PLAYORDER=
